<svg width="12" height="17" viewBox="0 0 12 17" fill="none" xmlns="http://www.w3.org/2000/svg">
<path d="M2.40295 6.89215V4.99131H8.71519V6.89215H2.40295ZM1.90084 17.1495C1.37811 17.1495 0.930618 16.9634 0.558364 16.5912C0.186121 16.2189 0 15.7714 0 15.2487V2.05038C0 1.52765 0.186121 1.08016 0.558364 0.707918C0.930618 0.335663 1.37811 0.149536 1.90084 0.149536H9.2173C9.74003 0.149536 10.1875 0.335663 10.5598 0.707918C10.932 1.08016 11.1181 1.52765 11.1181 2.05038V15.2487C11.1181 15.7714 10.932 16.2189 10.5598 16.5912C10.1875 16.9634 9.74003 17.1495 9.2173 17.1495H1.90084ZM1.90084 12.8099H9.2173V4.4892H1.90084V12.8099Z" fill="black"/>
</svg>
