<svg width="17" height="17" viewBox="0 0 17 17" fill="none" xmlns="http://www.w3.org/2000/svg">
<path d="M10.1472 8.96007C10.5366 8.96007 10.8582 8.81545 11.112 8.52622C11.3659 8.23698 11.4928 7.90504 11.4928 7.53039H14.4678V2.76215H5.82611V7.5257H8.81882C8.81882 7.90347 8.94572 8.23698 9.19954 8.52622C9.45336 8.81545 9.76925 8.96007 10.1472 8.96007ZM5.82611 13.2809C5.30991 13.2809 4.86801 13.0971 4.50041 12.7295C4.13282 12.3619 3.94902 11.92 3.94902 11.4038V2.76215C3.94902 2.24596 4.13282 1.80406 4.50041 1.43647C4.86801 1.06887 5.30991 0.885071 5.82611 0.885071H14.4678C14.984 0.885071 15.4259 1.06887 15.7935 1.43647C16.1611 1.80406 16.3449 2.24596 16.3449 2.76215V11.4038C16.3449 11.92 16.1611 12.3619 15.7935 12.7295C15.4259 13.0971 14.984 13.2809 14.4678 13.2809H5.82611ZM2.53236 16.5747C2.01616 16.5747 1.57427 16.3909 1.20668 16.0233C0.839074 15.6557 0.655273 15.2138 0.655273 14.6976V4.17882H2.53236V14.6976H13.0511V16.5747H2.53236Z" fill="black"/>
</svg>
