<svg width="17" height="17" viewBox="0 0 17 17" fill="none" xmlns="http://www.w3.org/2000/svg">
<path d="M8.49997 10.2882L6.71143 8.49963L8.49997 6.71109L10.2885 8.49963L8.49997 10.2882ZM6.99476 5.59547L4.85205 3.45276L8.49997 -0.19516L12.1479 3.45276L10.0052 5.59547L8.49997 4.09026L6.99476 5.59547ZM3.45309 12.1475L-0.194824 8.49963L3.45309 4.85172L5.5958 6.99442L4.09059 8.49963L5.5958 10.0048L3.45309 12.1475ZM13.5468 12.1475L11.4041 10.0048L12.9093 8.49963L11.4041 6.99442L13.5468 4.85172L17.1948 8.49963L13.5468 12.1475ZM8.49997 17.1944L4.85205 13.5465L6.99476 11.4038L8.49997 12.909L10.0052 11.4038L12.1479 13.5465L8.49997 17.1944Z" fill="black"/>
</svg>
