<svg width="17" height="17" viewBox="0 0 17 17" fill="none" xmlns="http://www.w3.org/2000/svg">
<path d="M6.60511 12.1121V4.88714L12.2187 8.49964L6.60511 12.1121ZM8.4999 16.5215C7.31935 16.5215 6.19487 16.2706 5.12646 15.7689C4.05806 15.2672 3.13428 14.5559 2.35511 13.6351V15.1048H0.478027V10.3944H5.18844V12.2715H3.66553C4.244 13.0271 4.95233 13.6114 5.79053 14.0246C6.62872 14.4378 7.53185 14.6444 8.4999 14.6444C9.81032 14.6444 11.0027 14.2489 12.077 13.458C13.1513 12.667 13.9127 11.6281 14.3614 10.3413L16.1853 10.7663C15.6187 12.4899 14.6299 13.88 13.2192 14.9366C11.8084 15.9932 10.2353 16.5215 8.4999 16.5215ZM0.495736 8.02152C0.578375 7.12429 0.767263 6.29791 1.0624 5.54235C1.35754 4.78679 1.78254 4.05485 2.3374 3.34652L3.68324 4.69235C3.32907 5.18818 3.03688 5.71648 2.80667 6.27725C2.57646 6.83801 2.43185 7.41943 2.37282 8.02152H0.495736ZM4.69261 3.71839L3.38219 2.35485C4.01969 1.84721 4.71327 1.43697 5.46292 1.12412C6.21258 0.811274 6.98879 0.607628 7.79157 0.513184V2.39027C7.2249 2.47291 6.67889 2.62933 6.15355 2.85954C5.6282 3.08975 5.14122 3.37603 4.69261 3.71839ZM12.3072 3.70068C11.8232 3.33471 11.3332 3.04548 10.8374 2.83298C10.3416 2.62048 9.79851 2.47291 9.20824 2.39027V0.513184C10.0228 0.607628 10.802 0.808322 11.5457 1.11527C12.2895 1.42221 12.986 1.83541 13.6353 2.35485L12.3072 3.70068ZM14.627 8.02152C14.5562 7.38402 14.4145 6.80259 14.202 6.27725C13.9895 5.7519 13.6884 5.2295 13.2989 4.71006L14.6447 3.36423C15.1759 4.03714 15.598 4.76909 15.9108 5.56006C16.2237 6.35103 16.4214 7.17152 16.5041 8.02152H14.627Z" fill="black"/>
</svg>
