<svg width="16" height="16" viewBox="0 0 16 16" fill="none" xmlns="http://www.w3.org/2000/svg">
<path d="M9 1V1.625C11.2812 2.09375 13 4.09375 13 6.5V7.09375C13 8.5625 13.5312 10 14.5 11.0938L14.7188 11.3438C15 11.6562 15.0625 12.0625 14.9062 12.4375C14.75 12.7812 14.375 13 14 13H2C1.59375 13 1.21875 12.7812 1.0625 12.4375C0.90625 12.0625 0.96875 11.6562 1.25 11.3438L1.46875 11.0938C2.4375 10 3 8.5625 3 7.09375V6.5C3 4.09375 4.6875 2.09375 7 1.625V1C7 0.46875 7.4375 0 8 0C8.53125 0 9 0.46875 9 1ZM8 16C7.46875 16 6.9375 15.8125 6.5625 15.4375C6.1875 15.0625 6 14.5312 6 14H10C10 14.5312 9.78125 15.0625 9.40625 15.4375C9.03125 15.8125 8.5 16 8 16Z" fill="black"/>
</svg>
