<svg width="14" height="17" viewBox="0 0 14 17" fill="none" xmlns="http://www.w3.org/2000/svg">
<path d="M4.75 2.5H9.25V1.25C9.25 0.84375 9.5625 0.5 10 0.5C10.4062 0.5 10.75 0.84375 10.75 1.25V2.5H12C13.0938 2.5 14 3.40625 14 4.5V14.5C14 15.625 13.0938 16.5 12 16.5H2C0.875 16.5 0 15.625 0 14.5V4.5C0 3.40625 0.875 2.5 2 2.5H3.25V1.25C3.25 0.84375 3.5625 0.5 4 0.5C4.40625 0.5 4.75 0.84375 4.75 1.25V2.5ZM1.5 14.5C1.5 14.7812 1.71875 15 2 15H12C12.25 15 12.5 14.7812 12.5 14.5V6.5H1.5V14.5Z" fill="black"/>
</svg>
