<svg width="15" height="13" viewBox="0 0 15 13" fill="none" xmlns="http://www.w3.org/2000/svg">
<path d="M11.9447 7.27877V5.68502H14.9551V7.27877H11.9447ZM12.8301 12.4142L10.4218 10.6434L11.378 9.33294L13.7863 11.1392L12.8301 12.4142ZM11.378 3.66627L10.4218 2.35586L12.8301 0.585022L13.7863 1.86002L11.378 3.66627ZM2.09884 11.7059V8.80169H1.56759C1.1544 8.80169 0.797282 8.65117 0.49624 8.35013C0.195199 8.04908 0.0446777 7.69197 0.0446777 7.27877V5.72044C0.0446777 5.30724 0.195199 4.95013 0.49624 4.64908C0.797282 4.34804 1.1544 4.19752 1.56759 4.19752H4.04676L7.80093 1.93086V11.0684L4.04676 8.80169H3.69259V11.7059H2.09884ZM9.2176 8.97877V4.02044C9.55996 4.32738 9.83444 4.69336 10.041 5.11836C10.2476 5.54336 10.3509 6.00377 10.3509 6.49961C10.3509 6.99544 10.2476 7.45586 10.041 7.88086C9.83444 8.30586 9.55996 8.67183 9.2176 8.97877Z" fill="black"/>
</svg>
