<svg width="17" height="17" viewBox="0 0 17 17" fill="none" xmlns="http://www.w3.org/2000/svg">
<path d="M2.51468 17.5132V15.6361H14.4855V17.5132H2.51468ZM2.51468 1.36317V-0.513916H14.4855V1.36317H2.51468ZM8.5001 9.57983C9.16121 9.57983 9.72492 9.34963 10.1912 8.88921C10.6576 8.42879 10.8907 7.86213 10.8907 7.18921C10.8907 6.5281 10.6576 5.96438 10.1912 5.49806C9.72492 5.03174 9.16121 4.79858 8.5001 4.79858C7.82718 4.79858 7.26051 5.03174 6.8001 5.49806C6.33968 5.96438 6.10947 6.5281 6.10947 7.18921C6.10947 7.86213 6.33968 8.42879 6.8001 8.88921C7.26051 9.34963 7.82718 9.57983 8.5001 9.57983ZM2.72718 14.6975C2.20774 14.6975 1.76503 14.5146 1.39906 14.1486C1.03308 13.7826 0.850098 13.3399 0.850098 12.8205V4.1965C0.850098 3.66525 1.03308 3.21664 1.39906 2.85067C1.76503 2.4847 2.20774 2.30171 2.72718 2.30171H14.2553C14.7866 2.30171 15.2352 2.4847 15.6011 2.85067C15.9671 3.21664 16.1501 3.66525 16.1501 4.1965V12.8205C16.1501 13.3399 15.9671 13.7826 15.6011 14.1486C15.2352 14.5146 14.7866 14.6975 14.2553 14.6975H2.72718ZM3.43551 12.8205H13.5647C13.0216 12.0413 12.3133 11.4126 11.4397 10.9345C10.5661 10.4564 9.58621 10.2173 8.5001 10.2173C7.41399 10.2173 6.43413 10.4564 5.56051 10.9345C4.6869 11.4126 3.97857 12.0413 3.43551 12.8205Z" fill="black"/>
</svg>
