<svg width="17" height="14" viewBox="0 0 17 14" fill="none" xmlns="http://www.w3.org/2000/svg">
<path d="M0.478027 13.9809V10.9173C0.478027 10.4569 0.640354 10.0673 0.965007 9.74856C1.28966 9.42981 1.67629 9.27044 2.1249 9.27044H4.44469C4.62178 9.27044 4.79001 9.31176 4.94938 9.3944C5.10876 9.47704 5.24157 9.60099 5.34782 9.76627C5.71379 10.2857 6.17126 10.6871 6.72021 10.9704C7.26917 11.2538 7.8624 11.3954 8.4999 11.3954C9.1374 11.3954 9.73358 11.2538 10.2884 10.9704C10.8433 10.6871 11.3037 10.2857 11.6697 9.76627C11.7759 9.60099 11.9088 9.47704 12.0681 9.3944C12.2275 9.31176 12.3898 9.27044 12.5551 9.27044H14.8749C15.3353 9.27044 15.7249 9.42981 16.0437 9.74856C16.3624 10.0673 16.5218 10.4569 16.5218 10.9173V13.9809H11.103V12.635C10.7016 12.8357 10.2825 12.9921 9.84574 13.1043C9.40893 13.2164 8.96032 13.2725 8.4999 13.2725C8.05129 13.2725 7.60858 13.2164 7.17178 13.1043C6.73497 12.9921 6.30997 12.8357 5.89678 12.635V13.9809H0.478027ZM8.4999 10.3329C8.11032 10.3329 7.74139 10.2385 7.39313 10.0496C7.04487 9.86072 6.75268 9.6128 6.51657 9.30586C6.28046 8.96349 5.98532 8.69787 5.63115 8.50898C5.27699 8.32009 4.89921 8.21974 4.49782 8.20794C4.8756 7.83016 5.46292 7.52027 6.2598 7.27825C7.05667 7.03624 7.80337 6.91523 8.4999 6.91523C9.20824 6.91523 9.96084 7.03624 10.7577 7.27825C11.5546 7.52027 12.1419 7.83016 12.5197 8.20794C12.1065 8.21974 11.7258 8.32009 11.3775 8.50898C11.0292 8.69787 10.7371 8.96349 10.5009 9.30586C10.2766 9.62461 9.9874 9.87547 9.63324 10.0585C9.27907 10.2414 8.90129 10.3329 8.4999 10.3329ZM2.83324 7.85377C2.18393 7.85377 1.62907 7.62356 1.16865 7.16315C0.708236 6.70273 0.478027 6.14787 0.478027 5.49856C0.478027 4.83745 0.708236 4.27964 1.16865 3.82513C1.62907 3.37061 2.18393 3.14336 2.83324 3.14336C3.49435 3.14336 4.05216 3.37061 4.50667 3.82513C4.96119 4.27964 5.18844 4.83745 5.18844 5.49856C5.18844 6.14787 4.96119 6.70273 4.50667 7.16315C4.05216 7.62356 3.49435 7.85377 2.83324 7.85377ZM14.1666 7.85377C13.5173 7.85377 12.9624 7.62356 12.502 7.16315C12.0416 6.70273 11.8114 6.14787 11.8114 5.49856C11.8114 4.83745 12.0416 4.27964 12.502 3.82513C12.9624 3.37061 13.5173 3.14336 14.1666 3.14336C14.8277 3.14336 15.3855 3.37061 15.84 3.82513C16.2945 4.27964 16.5218 4.83745 16.5218 5.49856C16.5218 6.14787 16.2945 6.70273 15.84 7.16315C15.3855 7.62356 14.8277 7.85377 14.1666 7.85377ZM8.4999 5.49856C7.8506 5.49856 7.29574 5.26836 6.83532 4.80794C6.3749 4.34752 6.14469 3.79266 6.14469 3.14336C6.14469 2.48224 6.3749 1.92443 6.83532 1.46992C7.29574 1.0154 7.8506 0.788147 8.4999 0.788147C9.16101 0.788147 9.71883 1.0154 10.1733 1.46992C10.6279 1.92443 10.8551 2.48224 10.8551 3.14336C10.8551 3.79266 10.6279 4.34752 10.1733 4.80794C9.71883 5.26836 9.16101 5.49856 8.4999 5.49856Z" fill="black"/>
</svg>
