<svg width="17" height="15" viewBox="0 0 17 15" fill="none" xmlns="http://www.w3.org/2000/svg">
<path d="M13.8126 14.9111L12.5022 13.6007L13.3876 12.6975H10.7491V10.8204H13.3876L12.4845 9.91732L13.8126 8.6069L16.9647 11.759L13.8126 14.9111ZM2.72718 12.6975C2.19593 12.6975 1.75027 12.5175 1.3902 12.1574C1.03013 11.7974 0.850098 11.3517 0.850098 10.8204V2.17878C0.850098 1.64753 1.03013 1.20187 1.3902 0.841801C1.75027 0.481731 2.19593 0.301697 2.72718 0.301697H14.273C14.8043 0.301697 15.2499 0.481731 15.61 0.841801C15.9701 1.20187 16.1501 1.64753 16.1501 2.17878V8.25274C15.8077 8.04024 15.4388 7.88086 15.0433 7.77461C14.6478 7.66836 14.2435 7.61524 13.8303 7.61524C12.5789 7.61524 11.5164 8.05204 10.6428 8.92566C9.7692 9.79927 9.33239 10.8618 9.33239 12.1132V12.6975H2.72718ZM8.5001 7.61524L14.273 4.09128V2.17878L8.5001 5.79128L2.72718 2.17878V4.09128L8.5001 7.61524Z" fill="black"/>
</svg>
