<svg width="15" height="15" viewBox="0 0 15 15" fill="none" xmlns="http://www.w3.org/2000/svg">
<path d="M2.43543 14.4413C1.91924 14.4413 1.47734 14.2575 1.10973 13.8899C0.742144 13.5223 0.55835 13.0804 0.55835 12.5642V2.43501C0.55835 1.91881 0.742144 1.47691 1.10973 1.10932C1.47734 0.741723 1.91924 0.557922 2.43543 0.557922H12.5646C13.0808 0.557922 13.5227 0.741723 13.8903 1.10932C14.2579 1.47691 14.4417 1.91881 14.4417 2.43501V12.5642C14.4417 13.0804 14.2579 13.5223 13.8903 13.8899C13.5227 14.2575 13.0808 14.4413 12.5646 14.4413H2.43543ZM7.53543 10.1204C8.01946 10.1204 8.46807 9.99056 8.88127 9.73084C9.29446 9.47112 9.62502 9.11695 9.87293 8.66834H12.5646V2.43501H2.43543V8.66834H5.16252C5.41043 9.11695 5.74689 9.47112 6.17189 9.73084C6.59689 9.99056 7.05141 10.1204 7.53543 10.1204ZM7.48231 9.19959L4.2771 5.99438L5.48127 4.79021L6.54377 5.85271V2.78917H8.42085V5.85271L9.48335 4.79021L10.6875 5.99438L7.48231 9.19959Z" fill="black"/>
</svg>
