<svg width="15" height="16" viewBox="0 0 15 16" fill="none" xmlns="http://www.w3.org/2000/svg">
<path d="M6.57923 15.9996V8.86991C6.35493 8.71195 6.17784 8.51492 6.04798 8.2788C5.91812 8.04269 5.85319 7.78297 5.85319 7.49964C5.85319 7.04675 6.01445 6.65905 6.33696 6.33654C6.65948 6.01402 7.04718 5.85276 7.50006 5.85276C7.95295 5.85276 8.34065 6.01402 8.66317 6.33654C8.98568 6.65905 9.14694 7.04675 9.14694 7.49964C9.14694 7.77117 9.08496 8.02203 8.961 8.25224C8.83704 8.48245 8.66881 8.67429 8.45632 8.82776V15.9996H6.57923ZM2.45319 12.7944C1.74486 12.1215 1.19 11.3322 0.788607 10.4265C0.387218 9.52078 0.186523 8.54516 0.186523 7.49964C0.186523 6.48793 0.378617 5.53716 0.762806 4.64736C1.14701 3.75754 1.66842 2.98352 2.32704 2.3253C2.98566 1.66708 3.76014 1.14599 4.65049 0.762042C5.54084 0.378078 6.49218 0.186096 7.50451 0.186096C8.51682 0.186096 9.46569 0.377936 10.3511 0.761617C11.2365 1.1453 12.0092 1.66644 12.669 2.32503C13.3289 2.98363 13.8513 3.7581 14.2362 4.64844C14.6211 5.53876 14.8136 6.49007 14.8136 7.50236C14.8136 8.55124 14.6129 9.52724 14.2115 10.4304C13.8101 11.3335 13.2553 12.1215 12.5469 12.7944L11.2188 11.4663C11.7456 10.972 12.1636 10.3851 12.4727 9.70551C12.7819 9.0259 12.9365 8.29061 12.9365 7.49964C12.9365 5.98853 12.4082 4.70467 11.3516 3.64808C10.295 2.59148 9.01118 2.06318 7.50006 2.06318C5.98895 2.06318 4.7051 2.59148 3.6485 3.64808C2.59191 4.70467 2.06361 5.98853 2.06361 7.49964C2.06361 8.29061 2.21667 9.02514 2.5228 9.70324C2.82892 10.3813 3.24842 10.969 3.78132 11.4663L2.45319 12.7944ZM4.45423 10.7934C4.00562 10.3802 3.65441 9.89196 3.40059 9.3287C3.14677 8.76543 3.01986 8.15574 3.01986 7.49964C3.01986 6.24825 3.45371 5.1887 4.32142 4.32099C5.18913 3.45328 6.24868 3.01943 7.50006 3.01943C8.75145 3.01943 9.811 3.45328 10.6787 4.32099C11.5464 5.1887 11.9803 6.24755 11.9803 7.49755C11.9803 8.16005 11.8534 8.77169 11.5995 9.33245C11.3457 9.89321 10.9945 10.3802 10.5459 10.7934L9.21777 9.46526C9.4893 9.22915 9.70475 8.93943 9.86413 8.5961C10.0235 8.25276 10.1032 7.88727 10.1032 7.49964C10.1032 6.78377 9.8483 6.17095 9.33853 5.66118C8.82875 5.1514 8.21593 4.89651 7.50006 4.89651C6.7842 4.89651 6.17138 5.15129 5.6616 5.66086C5.15183 6.17043 4.89694 6.783 4.89694 7.49856C4.89694 7.88886 4.97663 8.25519 5.136 8.59755C5.29538 8.93992 5.51083 9.22915 5.78236 9.46526L4.45423 10.7934Z" fill="black"/>
</svg>
