<svg width="19" height="20" viewBox="0 0 19 20" fill="none" xmlns="http://www.w3.org/2000/svg">
<path d="M18.3539 16.8612C18.8745 17.4165 18.8745 18.2842 18.3539 18.8395C17.7986 19.3601 16.9309 19.3601 16.3756 18.8395L12.2453 14.6746C10.8223 15.6117 9.08693 16.0976 7.2127 15.8546C4.01958 15.4034 1.4512 12.8004 1.03471 9.64194C0.444674 4.92167 4.43608 0.930268 9.15634 1.5203C12.3148 1.9368 14.9178 4.50518 15.369 7.6983C15.612 9.57252 15.1261 11.3079 14.189 12.6962L18.3539 16.8612ZM3.74192 8.67012C3.74192 11.1344 5.72027 13.1127 8.18452 13.1127C10.6141 13.1127 12.6271 11.1344 12.6271 8.67012C12.6271 6.24057 10.6141 4.22751 8.18452 4.22751C5.72027 4.22751 3.74192 6.24057 3.74192 8.67012Z" fill="white"/>
</svg>
